<?xml version="1.0" encoding="utf-8"?>
<svg xmlns="http://www.w3.org/2000/svg" fill="none" height="40" viewBox="0 0 40 40" width="40">
<rect fill="#110F24" height="40" width="40"/>
<g clip-path="url(#clip0_1365_33273)">
<path d="M22.6598 17.2112C22.6598 18.7321 21.4275 19.9652 19.9078 19.9652V22.7193C22.9473 22.7193 25.4117 20.253 25.4117 17.2112C25.4117 14.1694 22.9473 11.7031 19.9078 11.7031C18.9058 11.7031 17.9649 11.9709 17.1558 12.4405C15.5104 13.3922 14.4039 15.1721 14.4039 17.2112V30.9814L16.8783 33.4576L17.1558 33.7354V17.2112C17.1558 15.6903 18.3881 14.4572 19.9078 14.4572C21.4275 14.4572 22.6598 15.6903 22.6598 17.2112Z" fill="#E6DAFE"/>
<path d="M19.9079 6.19531C17.9027 6.19531 16.0233 6.73217 14.4039 7.67011C13.3671 8.26924 12.4386 9.0328 11.652 9.9259C9.93929 11.8678 8.89999 14.4188 8.89999 17.2114V25.4735L11.652 28.2276V17.2114C11.652 14.7651 12.7149 12.5666 14.4039 11.0532C15.198 10.3432 16.1303 9.78265 17.1559 9.42143C18.016 9.11501 18.9433 8.94934 19.9079 8.94934C24.4671 8.94934 28.1638 12.6488 28.1638 17.2114C28.1638 21.7741 24.4671 25.4735 19.9079 25.4735V28.2276C25.9881 28.2276 30.9158 23.295 30.9158 17.2114C30.9158 11.1279 25.9881 6.19531 19.9079 6.19531Z" fill="#E6DAFE"/>
</g>
<defs>
<clipPath id="clip0_1365_33273">
<rect fill="white" height="27.6" transform="translate(8.89999 6.19531)" width="22.1"/>
</clipPath>
</defs>
</svg>